<?xml version="1.0" encoding="utf-8"?>
<!-- Generator: Adobe Illustrator 22.0.1, SVG Export Plug-In . SVG Version: 6.00 Build 0)  -->
<svg version="1.1" id="Layer_1" xmlns="http://www.w3.org/2000/svg" xmlns:xlink="http://www.w3.org/1999/xlink" x="0px" y="0px"
	 viewBox="0 0 388 63" style="enable-background:new 0 0 388 63;" xml:space="preserve">
<style type="text/css">
	.st0{fill:none;stroke:url(#Path_1_);stroke-width:2;}
	.st1{fill:none;stroke:#002242;}
	.st2{fill:none;stroke:#002242;stroke-width:2;}
	.st3{fill:#002242;}
	.st4{font-family:'Helvetica';}
	.st5{font-size:6.5415px;}
	.st6{fill:url(#LaraBuilder_2_);}
</style>
<title>Logo</title>
<desc>Created with Sketch.</desc>
<g id="builder-organize_1_" transform="translate(167.000000, 0.000000)">
	
		<radialGradient id="Path_1_" cx="-179.2197" cy="183.7892" r="1.3549" gradientTransform="matrix(-43.5556 -22.4479 -22.4479 43.5556 -3772.1799 -11986.9033)" gradientUnits="userSpaceOnUse">
		<stop  offset="0" style="stop-color:#F74608"/>
		<stop  offset="1" style="stop-color:#B41E3C"/>
	</radialGradient>
	<polyline id="Path_5_" class="st0" points="-144.1,45.1 -165.9,45.1 -165.9,1.3 -94.3,1.3 -94.3,45.1 -110.9,45.1 	"/>
	<path id="Shape_5_" class="st1" d="M-123.8,38l-4.5,4.5l-4.5-4.5 M-123.8,20.1l-4.5-4.5l-4.5,4.5"/>
	<path id="Path_4_" class="st1" d="M-127.8,15.6v26.8"/>
	<path id="Shape_4_" class="st1" d="M-137.2,33.5l-4.5-4.5l4.5-4.5 M-119.3,33.5l4.5-4.5l-4.5-4.5"/>
	<path id="Path_3_" class="st1" d="M-114.9,29.5h-26.8"/>
	<path id="Shape_3_" class="st2" d="M-102.1,62.1h7.1 M-116.3,62.1h7.1 M-130.4,62.1h7.1 M-144.6,62.1h7.1 M-156,57.8v4.4h4.4
		 M-83.6,57.8v4.4H-88 M-156,45.5v7 M-83.6,45.5v7 M-83.6,31.5v7 M-88,20.1h4.4v4.4"/>
</g>
<g id="Group-3_1_" transform="translate(0.000000, 163.000000)">
	<g id="Group_1_" transform="translate(14.000000, 16.000000)">
		<text transform="matrix(1 0 0 1 106.6827 -117.5031)" class="st3 st4 st5">Powerful And Easy</text>
	</g>
	
		<radialGradient id="LaraBuilder_2_" cx="-13.1822" cy="16.5416" r="1.6938" gradientTransform="matrix(-96.7141 -20.6304 -20.6304 96.7141 -622.3997 -1985.7662)" gradientUnits="userSpaceOnUse">
		<stop  offset="0" style="stop-color:#F74608"/>
		<stop  offset="1" style="stop-color:#B41E3C"/>
	</radialGradient>
	<path id="LaraBuilder_1_" class="st6" d="M128.3-160.5c0.4,0.8,0.7,1.6,0.7,2.5c0,0.9-0.2,1.7-0.6,2.5c-0.5,0.9-1,1.8-1.6,2.7
		c-0.6,0.9-1.2,1.8-1.8,2.7c-1.3,1.7-2.6,3.4-4,4.9c-1.4,1.6-2.8,3.2-4.1,4.9c-1.4,1.8-2.8,3.6-4.2,5.4c-1.4,1.8-2.7,3.6-4.1,5.5
		c-0.7,0.9-1.3,1.8-1.9,2.8c-0.6,0.9-1.2,1.8-1.8,2.8c-0.3,0.5-0.6,1-0.9,1.4s-0.5,1-0.8,1.4c-0.2,0.3-0.4,0.7-0.5,1
		c-0.2,0.4-0.3,0.8-0.4,1.2c0.4,0,0.9-0.1,1.4-0.3c0.5-0.2,0.9-0.3,1.3-0.5c0.7-0.2,1.3-0.4,2-0.7c0.7-0.2,1.3-0.5,2-0.7
		c1.3-0.4,2.6-0.9,4-1.3s2.7-0.9,4-1.2c2.6-0.7,5.1-1.2,7.6-1.6c2.5-0.4,5.1-0.5,7.8-0.5c0.5,0,1,0,1.5,0c0.5,0,1,0,1.5,0.1
		c0.2,0,0.5,0,0.8,0.1c0.3,0,0.5,0.2,0.6,0.5c0,0.5-0.1,0.8-0.6,0.8c-0.4,0.1-0.8,0.1-1,0.2c-0.6,0.1-1.1,0.2-1.6,0.2
		c-0.5,0.1-1.1,0.2-1.6,0.2c-2.6,0.4-5.2,1-7.7,1.6c-2.5,0.6-5,1.3-7.6,2.1c-1.3,0.4-2.6,0.8-4,1.3c-1.3,0.5-2.6,0.9-4,1.3
		c-1.1,0.4-2.3,0.8-3.5,1.3c-1.2,0.5-2.5,0.7-3.7,0.7c-0.6,0-1.1-0.2-1.6-0.5c-0.5-0.3-0.9-0.7-1.1-1.2c-0.2-0.5-0.3-1-0.3-1.5
		c0-0.5,0.1-1.1,0.3-1.6c0.2-0.5,0.4-1.1,0.6-1.6c0.2-0.5,0.5-1,0.7-1.4c1.3-2.4,2.7-4.8,4.3-7s3.2-4.5,4.9-6.7
		c1.7-2.2,3.3-4.4,5-6.6s3.3-4.4,5-6.6c1-1.4,1.9-2.7,2.9-4s1.9-2.7,2.7-4.1c0.3-0.5,0.6-1,0.9-1.6c0.3-0.5,0.5-1.1,0.8-1.6
		c0.1-0.3,0.3-0.5,0.4-0.5c0.2,0,0.3,0.1,0.5,0.2c0.2,0.1,0.3,0.3,0.4,0.5C128.1-160.8,128.2-160.6,128.3-160.5z M144.7-138.7
		c-0.6,0-1.2,0-1.8,0.3c-0.6,0.2-1.2,0.5-1.7,0.8c-0.6,0.3-1.1,0.7-1.6,1.2s-0.9,0.9-1.3,1.3c-0.6,0.6-1.1,1.2-1.6,1.9
		c-0.5,0.7-0.9,1.3-1.3,2.1c-0.4,0.6-0.8,1.4-1,2.3c0,0.1-0.1,0.3-0.1,0.6c0,0.3,0,0.5,0.1,0.5c0.4,0.1,0.9,0,1.3-0.2
		c0.4-0.2,0.8-0.5,1.1-0.7c0.6-0.4,1.1-0.8,1.6-1.2c0.5-0.4,0.9-0.9,1.4-1.3l0.8-0.8c0.3-0.7,0.7-1.3,1-2c0.4-0.6,0.8-1.3,1.2-1.9
		c0.2-0.4,0.5-0.8,0.9-1.2c0.4-0.4,0.8-0.6,1.3-0.6c0.6,0,0.9,0.3,0.8,1c-0.2,0.6-0.5,1.1-0.8,1.6s-0.7,1-1.1,1.6l-0.7,1.5
		c-0.2,0.5-0.4,0.9-0.6,1.4c-0.2,0.5-0.3,0.9-0.4,1.4c-0.1,0.4-0.1,0.8-0.1,1.1c0.2,0,0.4,0,0.7-0.1c0.3-0.1,0.5-0.3,0.8-0.5
		s0.5-0.4,0.7-0.6l0.5-0.5c0.6-0.4,1.1-0.9,1.6-1.3s1-0.9,1.4-1.4c0.4-0.4,0.8-0.8,1.2-1.2c0.4-0.4,0.8-0.8,1.2-1.1
		c0.1-0.1,0.3-0.2,0.4-0.3c0.2-0.1,0.4-0.3,0.6-0.4s0.4-0.1,0.5-0.1c0.2,0,0.3,0.2,0.3,0.4c0,0.3-0.1,0.7-0.5,1.2
		c-0.4,0.5-0.6,0.8-0.8,1.1l-2.5,2.9c-0.4,0.4-0.8,0.8-1.2,1.3c-0.4,0.5-0.9,0.9-1.4,1.3c-0.5,0.4-1,0.8-1.5,1.1
		c-0.5,0.3-1.1,0.5-1.6,0.6c-1,0.2-1.8,0-2.3-0.7c-0.5-0.7-0.7-1.4-0.7-2.3c-0.6,0.6-1.2,1.1-1.9,1.6c-0.3,0.2-0.6,0.4-0.9,0.6
		c-0.3,0.2-0.7,0.4-1,0.6c-0.4,0.2-0.7,0.3-1.1,0.3c-0.4,0-0.7,0-1.1-0.2c-0.6-0.2-1.1-0.6-1.3-1.1c-0.2-0.5-0.3-1.1-0.3-1.7
		s0.1-1.2,0.3-1.8c0.2-0.6,0.4-1.1,0.7-1.6c0.7-1.4,1.6-2.7,2.6-3.8s2.3-2,3.7-2.7c0.7-0.4,1.4-0.7,2.2-1s1.5-0.3,2.3-0.3
		c0.2,0,0.4,0.1,0.6,0.1s0.4,0.1,0.6,0.1c0.3,0.1,0.4,0.3,0.4,0.6S145-138.7,144.7-138.7z M150.2-132.6c0.4-0.7,0.8-1.3,1.3-2
		l1.4-1.9c0.2-0.3,0.4-0.6,0.6-0.8c0.2-0.3,0.4-0.6,0.6-0.8c-0.1-0.1-0.2-0.2-0.2-0.4c-0.3-0.6-0.4-1.3-0.2-1.9
		c0.1-0.6,0.4-1.2,0.9-1.6s1.1-0.5,1.8-0.3c0.4,0.2,0.7,0.4,0.9,0.7c0.2,0.3,0.2,0.6,0.1,1c-0.1,0.4-0.2,0.7-0.4,1.1
		c-0.2,0.4-0.4,0.8-0.7,1.2c0.5,0,1-0.1,1.7-0.4c0.7-0.2,1.1-0.4,1.4-0.5c0.3-0.1,0.6-0.1,1,0c0.3,0.1,0.6,0.3,0.8,0.5
		s0.3,0.5,0.3,0.8s-0.1,0.6-0.4,0.9c-0.8,0.9-1.5,1.8-2.3,2.6c-0.8,0.8-1.5,1.8-2.1,2.8c-0.3,0.4-0.6,0.9-0.9,1.5s-0.4,1.1-0.4,1.6
		c0,0.2,0.1,0.2,0.4,0.1s0.5-0.2,0.8-0.3c0.3-0.1,0.6-0.3,0.8-0.5c0.3-0.2,0.4-0.3,0.5-0.3c1-0.8,2-1.6,3-2.4
		c0.9-0.9,1.9-1.7,2.8-2.6c0.2-0.2,0.5-0.4,0.9-0.9c0.4-0.4,0.8-0.6,1-0.5c0.2,0.1,0.2,0.2,0.1,0.4c-0.1,0.2-0.1,0.4-0.3,0.6
		c-0.1,0.2-0.3,0.4-0.4,0.6c-0.2,0.2-0.3,0.3-0.3,0.4c-0.7,1-1.5,1.9-2.5,2.8c-0.9,0.9-1.9,1.7-2.8,2.5c-0.3,0.3-0.7,0.6-1.1,0.9
		c-0.4,0.3-0.9,0.6-1.4,0.9c-0.5,0.2-1,0.4-1.5,0.4c-0.5,0-0.9-0.1-1.3-0.5c-0.5-0.4-0.8-0.9-0.9-1.4c-0.1-0.5-0.1-1.1,0.1-1.7
		c0.2-0.6,0.4-1.2,0.7-1.7s0.5-1.1,0.8-1.5c0.3-0.6,0.7-1.1,1-1.6c0.4-0.5,0.8-1,1.2-1.6c-0.9,0.1-1.5-0.1-1.9-0.4l-0.3,0.3
		c-0.4,0.6-0.9,1.1-1.3,1.6c-0.4,0.5-0.9,1-1.4,1.5l-1.2,1.1c-0.2,0.1-0.3,0.1-0.5,0.1S150.1-132.3,150.2-132.6z M176.1-138.7
		c-0.6,0-1.2,0-1.8,0.3s-1.2,0.5-1.7,0.8c-0.6,0.3-1.1,0.7-1.6,1.2s-0.9,0.9-1.3,1.3c-0.6,0.6-1.1,1.2-1.6,1.9
		c-0.5,0.7-0.9,1.3-1.3,2.1c-0.4,0.6-0.8,1.4-1,2.3c0,0.1-0.1,0.3-0.1,0.6c0,0.3,0,0.5,0.1,0.5c0.4,0.1,0.9,0,1.3-0.2
		c0.4-0.2,0.8-0.5,1.1-0.7c0.6-0.4,1.1-0.8,1.6-1.2c0.5-0.4,0.9-0.9,1.4-1.3l0.8-0.8c0.3-0.7,0.7-1.3,1-2c0.4-0.6,0.8-1.3,1.2-1.9
		c0.2-0.4,0.5-0.8,0.9-1.2c0.4-0.4,0.8-0.6,1.3-0.6c0.6,0,0.9,0.3,0.8,1c-0.2,0.6-0.5,1.1-0.8,1.6s-0.7,1-1.1,1.6l-0.7,1.5
		c-0.2,0.5-0.4,0.9-0.6,1.4s-0.3,0.9-0.4,1.4c-0.1,0.4-0.1,0.8-0.1,1.1c0.2,0,0.4,0,0.7-0.1c0.3-0.1,0.5-0.3,0.8-0.5
		s0.5-0.4,0.7-0.6l0.5-0.5c0.6-0.4,1.1-0.9,1.6-1.3c0.5-0.5,1-0.9,1.4-1.4c0.4-0.4,0.8-0.8,1.2-1.2c0.4-0.4,0.8-0.8,1.2-1.1
		c0.1-0.1,0.3-0.2,0.4-0.3c0.2-0.1,0.4-0.3,0.6-0.4c0.2-0.1,0.4-0.1,0.5-0.1c0.2,0,0.3,0.2,0.3,0.4c0,0.3-0.1,0.7-0.5,1.2
		c-0.4,0.5-0.6,0.8-0.8,1.1l-2.5,2.9c-0.4,0.4-0.8,0.8-1.2,1.3c-0.4,0.5-0.9,0.9-1.4,1.3c-0.5,0.4-1,0.8-1.5,1.1
		c-0.5,0.3-1.1,0.5-1.6,0.6c-1,0.2-1.8,0-2.3-0.7s-0.7-1.4-0.7-2.3c-0.6,0.6-1.2,1.1-1.9,1.6c-0.3,0.2-0.6,0.4-0.9,0.6
		c-0.3,0.2-0.7,0.4-1,0.6c-0.4,0.2-0.7,0.3-1.1,0.3c-0.4,0-0.7,0-1.1-0.2c-0.6-0.2-1.1-0.6-1.3-1.1c-0.2-0.5-0.3-1.1-0.3-1.7
		s0.1-1.2,0.3-1.8c0.2-0.6,0.4-1.1,0.7-1.6c0.7-1.4,1.6-2.7,2.6-3.8s2.3-2,3.7-2.7c0.7-0.4,1.4-0.7,2.2-1s1.5-0.3,2.3-0.3
		c0.2,0,0.4,0.1,0.6,0.1s0.4,0.1,0.6,0.1c0.3,0.1,0.4,0.3,0.4,0.6C176.6-138.8,176.4-138.7,176.1-138.7z M192.7-147.5
		c-0.1-0.6,0-1.1,0.3-1.5c0.3-0.4,0.7-0.7,1.1-1c0.6-0.4,1.1-0.8,1.7-1.2s1.2-0.7,1.9-1c1.2-0.6,2.5-1.2,3.8-1.7s2.6-0.9,4-1.3
		l1.2-0.3l1.2-1c0.7-0.5,1.2-0.4,1.6,0.4v0.1c0.7-0.1,1.4-0.1,2.1-0.2c0.7,0,1.4-0.1,2.1-0.1c0.6,0,1.2,0,1.8,0.1
		c0.6,0.1,1.2,0.2,1.8,0.4s1.1,0.4,1.6,0.7c0.5,0.3,1,0.7,1.4,1.2c0.6,0.7,0.9,1.5,0.9,2.3s-0.2,1.6-0.5,2.5
		c-0.3,0.8-0.7,1.6-1.3,2.3s-1,1.4-1.5,1.9c-1.8,2.1-3.8,3.9-5.9,5.6c-2.1,1.7-4.3,3.2-6.6,4.6c-1.3,0.8-2.5,1.5-3.8,2.2
		c-1.2,0.7-2.5,1.3-3.8,2c2.1-0.2,4.2-0.2,6.1,0.1c1.2,0.2,2.3,0.6,3.3,1.2c1,0.6,1.8,1.4,2.4,2.5c0.8,1.5,0.9,3.1,0.5,4.8
		c-0.3,1.6-0.9,3.1-1.9,4.4c-0.9,1.3-2,2.5-3.1,3.6c-1.6,1.4-3.4,2.6-5.3,3.5c-2,0.9-4,1.6-6.1,2c-1.2,0.2-2.4,0.4-3.6,0.5h-0.9
		c-0.4,0-0.8,0-1.2-0.1c-0.4-0.1-0.7-0.2-0.8-0.4s-0.1-0.4,0.1-0.7c0.3-0.4,0.6-0.7,1-0.8c0.4-0.1,0.7-0.2,1.1-0.2
		c0.4,0,0.8,0,1.2,0.1c0.4,0.1,0.8,0.1,1.3,0c0.8-0.1,1.6-0.2,2.4-0.5s1.6-0.5,2.3-0.9c1.2-0.5,2.4-1.1,3.5-1.8s2.2-1.5,3.2-2.5
		c1-0.9,1.8-2,2.5-3.1s1.2-2.3,1.6-3.6v-0.1c0.1-0.8,0.1-1.6,0-2.4c-0.1-0.8-0.6-1.4-1.3-2c-1-0.8-2.1-1.3-3.4-1.5
		c-1.3-0.2-2.5-0.3-3.7-0.3c-0.4,0-0.9,0-1.4,0c-0.5,0-1,0-1.5,0.1c-0.5,0-1,0.1-1.5,0.2c-0.5,0.1-1,0.1-1.5,0.1
		c-0.2,0-0.4,0-0.6-0.1c-0.2-0.1-0.3-0.3-0.3-0.6c0-0.3,0-0.5,0.2-0.6c0.2-0.1,0.4-0.3,0.6-0.4c2.4-1.2,4.8-2.5,7.1-3.9
		c2.3-1.4,4.6-2.9,6.7-4.6c1.1-0.8,2.1-1.6,3.2-2.5c1-0.9,2-1.8,3-2.7c1-0.9,1.9-1.9,2.8-2.9c0.9-1,1.6-2.1,2.2-3.3
		c0.1-0.3,0.2-0.6,0.3-0.9s0.1-0.6,0-1c0,0,0.1,0,0.1-0.1c-0.1-0.4-0.4-0.7-0.8-1c-0.4-0.2-0.9-0.4-1.4-0.5c-0.5-0.1-1-0.2-1.5-0.2
		c-0.5,0-0.9,0-1.3,0c-1.1,0-2.2,0.1-3.3,0.2c-1.1,0.1-2.2,0.3-3.2,0.6c-0.6,0.6-1.1,1.3-1.6,1.9c-0.5,0.7-1,1.3-1.6,2
		c-2.1,2.9-4.1,5.8-5.8,8.8c-1.8,3-3.5,6-5.2,9.1c-0.8,1.4-1.6,2.8-2.3,4.2c-0.7,1.4-1.4,2.8-2.1,4.2c-0.3,0.6-0.6,1.2-0.9,1.8
		c-0.3,0.6-0.6,1.2-0.9,1.8c-0.3,0.6-0.7,0.8-1.1,0.9c-0.5,0-0.9-0.2-1.3-0.8c-0.3-0.1-0.3-0.4-0.2-0.9c0.2-0.5,0.4-1.1,0.7-1.7
		c0.3-0.6,0.6-1.2,0.9-1.8s0.5-0.9,0.6-1c0.6-1.1,1.1-2.2,1.7-3.3c0.6-1.1,1.2-2.2,1.8-3.2c1.4-2.4,2.7-4.8,4.1-7.2
		c1.4-2.4,2.9-4.7,4.5-7c0.8-1.2,1.6-2.3,2.4-3.5s1.7-2.3,2.6-3.4c-0.9,0.3-1.7,0.6-2.6,0.9s-1.7,0.7-2.5,1.1
		c-0.6,0.3-1.1,0.6-1.6,0.9s-1.1,0.6-1.6,0.9c-0.2,0.1-0.4,0.3-0.7,0.6c-0.3,0.3-0.6,0.4-0.8,0.3c-0.1,0-0.2-0.1-0.2-0.3
		S192.7-147.4,192.7-147.5z M224.1-139.2c-0.2,0.5-0.4,1-0.6,1.4c-0.2,0.4-0.5,0.9-0.8,1.3c-0.4,0.5-0.7,1-1,1.5s-0.7,1-1,1.5
		s-0.6,1-0.9,1.5c-0.3,0.5-0.5,1-0.7,1.6c-0.1,0.3-0.2,0.6-0.4,0.9c-0.1,0.3-0.2,0.6-0.3,0.9c0,0.1-0.1,0.2-0.1,0.4
		c0,0.2,0,0.4,0,0.5c0.6,0,1.1-0.1,1.6-0.3c0.5-0.2,1-0.5,1.5-0.8s0.9-0.7,1.4-1.1c0.4-0.4,0.9-0.8,1.3-1.2c2-1.8,3.8-3.9,5.5-6.2
		c0.3-0.4,0.6-0.8,0.9-1.3c0.3-0.5,0.6-0.9,1-1.2c0.2-0.2,0.5-0.2,0.7-0.2s0.4,0.1,0.6,0.2c0.2,0.1,0.3,0.3,0.4,0.6
		c0.1,0.2,0.1,0.5,0,0.8c-0.1,0.3-0.2,0.5-0.4,0.8c-0.2,0.3-0.4,0.5-0.6,0.8l-1.1,1.7c-0.4,0.6-0.7,1.2-1,1.9
		c-0.3,0.6-0.6,1.3-0.8,2c0,0.1-0.1,0.3-0.2,0.6c-0.1,0.3-0.2,0.6-0.3,0.9c-0.1,0.3-0.1,0.6-0.1,0.9s0.1,0.4,0.2,0.4
		c0.4-0.1,0.7-0.1,1-0.2c0.3-0.1,0.6-0.2,0.9-0.4c1.1-0.7,2.2-1.5,3.1-2.4c1-0.9,2-1.8,3-2.6c0.5-0.4,1-0.7,1.5-1
		c0.5-0.3,1-0.6,1.6-0.9c0.3,0,0.4,0,0.4,0.2c0,0.2-0.1,0.4-0.2,0.6c-0.1,0.2-0.3,0.5-0.5,0.7c-0.2,0.2-0.3,0.4-0.4,0.5
		c-0.8,1-1.6,2-2.5,3c-0.9,0.9-1.8,1.8-2.8,2.7c-0.7,0.5-1.4,1-2.2,1.4c-0.8,0.4-1.6,0.7-2.4,0.8c-0.8,0.1-1.4-0.1-1.9-0.7
		c-0.5-0.5-0.8-1.2-0.8-2c0-0.3,0-0.6,0-1c0-0.3,0.1-0.6,0.2-1l-2,1.9c-0.8,0.7-1.6,1.4-2.4,2c-0.9,0.7-1.8,1.2-2.8,1.5
		c-0.8,0.2-1.6,0.2-2.3-0.1c-0.7-0.3-1.1-1-1.3-1.9c-0.1-1,0-1.9,0.3-2.9c0.3-1,0.7-1.9,1.1-2.8c0.8-2,2-3.8,3.4-5.5
		c0.3-0.4,0.6-0.7,1-1c0.3-0.3,0.7-0.5,1.2-0.7c0.3-0.1,0.6-0.1,1-0.1C224-140,224.2-139.7,224.1-139.2z M246.1-138.8
		c-0.6,0.8-1.1,1.6-1.7,2.4c-0.6,0.8-1.2,1.6-1.7,2.4c-0.3,0.5-0.6,1-1,1.6s-0.7,1.1-1,1.6c-0.2,0.3-0.3,0.5-0.5,0.8
		c-0.2,0.3-0.3,0.5-0.4,0.8c-0.1,0.2-0.2,0.4-0.3,0.7s-0.2,0.5-0.2,0.7c0.2,0,0.5-0.1,0.9-0.4c0.5-0.3,1-0.7,1.5-1.1s1-0.8,1.5-1.2
		c0.4-0.4,0.7-0.6,0.8-0.7l2.4-2.3c0.8-0.8,1.7-1.5,2.6-2.1c0.2-0.2,0.3-0.2,0.5,0c0.1,0.2,0.1,0.3,0,0.4l-0.2,0.4
		c-0.3,0.4-0.6,0.9-1,1.3c-0.3,0.5-0.7,0.9-1.1,1.4c-0.8,0.9-1.6,1.8-2.5,2.8c-0.9,0.9-1.8,1.8-2.8,2.5c-0.3,0.2-0.6,0.4-1,0.6
		c-0.4,0.2-0.8,0.3-1.2,0.4c-0.4,0.1-0.8,0.1-1.2,0c-0.4-0.1-0.7-0.3-1-0.7c-0.3-0.4-0.5-0.9-0.4-1.5c0-0.5,0.2-1.1,0.4-1.7
		c0.2-0.6,0.4-1.1,0.7-1.6c0.3-0.5,0.5-1,0.7-1.4c1.1-2.2,2.4-4.2,4-6.1c0.6-0.7,1.3-1,2.2-1c0.1,0,0.3,0,0.4,0.1
		c0.2,0,0.3,0.1,0.5,0.1c0.1,0.1,0.2,0.2,0.3,0.3C246.3-139.2,246.2-139,246.1-138.8z M246.2-142.2c-0.1-0.4,0-0.9,0.4-1.4
		c0.4-0.5,0.7-0.8,1-1.1c0.4-0.4,0.9-0.5,1.5-0.5s0.9,0.4,1.1,1.1c0.2,0.6,0,1.1-0.4,1.4c-0.4,0.4-0.8,0.7-1.3,1
		c-0.4,0.3-0.9,0.4-1.4,0.4C246.8-141.3,246.4-141.6,246.2-142.2z M254-136.1c-0.9,0.8-1.8,1.4-2.8,2c-0.2,0.4-0.3,0.8-0.4,1.2
		c-0.1,0.4-0.3,0.8-0.4,1.2c-0.2,0.5-0.4,1.1-0.5,1.7c-0.1,0.6-0.1,1.2,0,1.7c0.1,0.3,0.2,0.5,0.4,0.5c0.2,0.1,0.4,0.1,0.6,0.1
		s0.4-0.1,0.6-0.2c0.2-0.1,0.4-0.2,0.6-0.3c1.2-0.6,2.2-1.3,3.2-2.2s1.9-1.7,2.8-2.6c0.4-0.4,0.8-0.8,1.2-1.1l1.2-1.1
		c0.1,0,0.2-0.1,0.4-0.3c0.2-0.2,0.3-0.3,0.5-0.4s0.3-0.1,0.4-0.1c0.1,0,0.1,0.2,0.1,0.4c-0.1,0.3-0.2,0.7-0.5,1
		c-0.3,0.4-0.5,0.7-0.7,0.9c-0.7,1-1.5,1.9-2.3,2.7c-0.8,0.9-1.7,1.7-2.7,2.5c-1,0.8-2,1.4-3.2,1.9c-0.5,0.2-1,0.3-1.6,0.4
		c-0.6,0.1-1.1,0-1.6-0.3c-0.5-0.3-0.8-0.7-1-1.2c-0.2-0.5-0.3-1-0.3-1.6c0-1.3,0.2-2.6,0.6-3.8c0.5-1.3,1-2.5,1.5-3.6
		c0.6-1.3,1.2-2.5,1.8-3.7c0.6-1.2,1.3-2.3,2-3.5c1.4-2.4,2.9-4.7,4.5-6.9c1.6-2.2,3.4-4.3,5.3-6.3c0.4-0.3,0.8-0.7,1.2-1.2
		s1-0.9,1.5-1.2c0.5-0.3,1.1-0.6,1.6-0.7c0.6-0.2,1.1-0.1,1.6,0.2c0.4,0.2,0.6,0.4,0.8,0.7s0.3,0.7,0.3,1c0,0.4,0,0.8,0,1.2
		c0,0.4-0.1,0.7-0.2,1c-0.5,1.3-1.2,2.5-2.1,3.6c-0.9,1.1-1.8,2.2-2.6,3.3c-1,1.2-1.9,2.3-2.9,3.4c-1,1.1-2,2.2-3.1,3.4
		c-1,1-1.9,2.1-2.9,3.1S255.1-137,254-136.1z M258.5-146.1c-1,1.5-2.1,3-3.1,4.5c-1,1.5-1.9,3.1-2.8,4.8c1-1.2,2.1-2.4,3.1-3.6
		c1.1-1.2,2.1-2.4,3.1-3.6c0.9-1.1,1.8-2.2,2.8-3.2s1.8-2.2,2.7-3.4c0.4-0.6,0.9-1.1,1.3-1.7c0.4-0.6,0.8-1.1,1.2-1.7
		c0.3-0.4,0.6-0.9,0.9-1.4c0.3-0.5,0.5-1.1,0.6-1.6c-0.3,0.2-0.6,0.4-1,0.7c-0.3,0.3-0.6,0.5-0.8,0.7c-0.6,0.4-1.1,0.9-1.5,1.4
		c-0.5,0.5-0.9,1-1.4,1.6c-0.9,1-1.8,2.1-2.7,3.2C260.1-148.4,259.3-147.3,258.5-146.1z M270.3-138.4c-1,0.4-1.9,1-2.8,1.7
		c-0.9,0.7-1.6,1.4-2.4,2.2c-0.9,1-1.7,2.1-2.4,3.3c-0.1,0.2-0.2,0.4-0.4,0.6s-0.3,0.5-0.4,0.8s-0.2,0.6-0.3,0.9s-0.1,0.5-0.1,0.8
		c0.4,0,0.9,0,1.4-0.3s0.9-0.4,1.3-0.6c0.6-0.4,1.2-0.7,1.8-1.2c0.6-0.4,1.1-0.8,1.7-1.3l1-0.8c0.6-2.5,1.5-4.9,2.8-7.1
		c1.3-2.3,2.7-4.4,4.1-6.4c0.8-1,1.6-2.1,2.4-3.1c0.8-1,1.8-1.9,2.8-2.8c0.3-0.3,0.6-0.5,1.1-0.8c0.5-0.3,0.9-0.4,1.4-0.6
		c0.5-0.1,0.9-0.1,1.4,0c0.4,0.1,0.8,0.5,1,1c0.2,0.4,0.2,0.9,0.1,1.3c-0.1,0.4-0.2,0.8-0.4,1.2c-0.2,0.6-0.4,1.2-0.7,1.8
		c-0.3,0.6-0.6,1.1-1,1.7c-0.7,1.2-1.5,2.3-2.3,3.3s-1.7,2.1-2.6,3.1c-1.2,1.4-2.5,2.8-3.8,4.1c-1.3,1.4-2.6,2.7-4,3.9
		c-0.2,0.7-0.3,1.3-0.3,1.9s0.1,1.2,0.4,1.8c0.1,0.3,0.4,0.4,0.9,0.2c0.5-0.2,1-0.4,1.6-0.8s1.1-0.7,1.6-1.1
		c0.5-0.4,0.8-0.7,0.9-0.8c0.9-0.8,1.8-1.6,2.6-2.5c0.8-0.8,1.7-1.7,2.6-2.5c0,0,0.1-0.1,0.3-0.3c0.2-0.1,0.3-0.2,0.5-0.3
		s0.3-0.1,0.4-0.1s0.1,0.2,0.1,0.4c0,0.2-0.1,0.3-0.2,0.5c-0.1,0.2-0.2,0.3-0.3,0.5c-0.2,0.2-0.4,0.5-0.5,0.7
		c-0.2,0.3-0.3,0.5-0.5,0.7c-1.5,1.9-3.2,3.6-5,5.2c-0.4,0.3-0.8,0.7-1.3,1c-0.5,0.4-1,0.7-1.5,1c-0.5,0.3-1.1,0.4-1.6,0.4
		s-1.1-0.1-1.6-0.5c-0.6-0.4-0.9-0.9-1.1-1.6c-0.2-0.7-0.3-1.4-0.3-2.1l-1.6,1.1c-0.4,0.3-0.8,0.6-1.3,0.9c-0.5,0.3-1,0.6-1.6,0.9
		s-1.1,0.4-1.7,0.5c-0.6,0.1-1.1,0-1.6-0.2c-0.4-0.2-0.7-0.4-0.9-0.8c-0.2-0.4-0.3-0.8-0.3-1.2c0-0.4,0-0.9,0.1-1.3
		c0.1-0.5,0.2-0.9,0.3-1.2c0.5-1.4,1.3-2.7,2.2-3.9c1-1.2,2-2.3,3.2-3.2c0.5-0.4,1-0.8,1.6-1.2c0.6-0.4,1.2-0.6,1.9-0.7h0.7
		c0.2,0,0.5,0,0.7,0.1c0.2,0.1,0.4,0.3,0.5,0.5C270.7-138.8,270.6-138.6,270.3-138.4z M275.1-140.5c-0.5,0.8-1,1.6-1.4,2.5
		c-0.4,0.8-0.9,1.7-1.3,2.6l1.9-1.8c1-1,2-2.1,2.9-3.1s1.8-2.1,2.7-3.2c0.4-0.6,0.9-1.1,1.3-1.7l1.2-1.7l1.1-1.9
		c0.1-0.2,0.2-0.4,0.3-0.7s0.1-0.6,0.1-0.7c-0.3,0.1-0.7,0.3-1,0.6c-0.4,0.3-0.6,0.6-0.8,0.8c-0.4,0.4-0.8,0.8-1.2,1.2
		c-0.4,0.4-0.8,0.9-1.2,1.3c-0.8,1-1.5,1.9-2.2,2.9C276.5-142.6,275.8-141.5,275.1-140.5z M283.9-129.4c-0.3,0.1-0.6,0.1-0.9,0.2
		c-0.3,0.1-0.6,0-0.9-0.1c0,0.3,0.2,0.6,0.4,1c0.3,0.4,0.8,0.6,1.4,0.6c0.6-0.1,1.2-0.2,1.9-0.5c0.6-0.3,1.2-0.6,1.8-1
		c0.6-0.4,1-0.7,1.3-0.9c1.1-0.7,2.1-1.4,3.2-2.1c1.1-0.7,2.1-1.5,3.1-2.3c0.2-0.2,0.5-0.4,0.8-0.7c0.3-0.3,0.6-0.5,0.9-0.6
		c0.2-0.1,0.3-0.1,0.4,0.1c0.1,0.1,0.1,0.3,0.1,0.4c0,0.2-0.1,0.3-0.2,0.5c-0.2,0.2-0.3,0.4-0.4,0.5c-0.7,1-1.5,1.9-2.3,2.7
		c-0.9,0.8-1.8,1.5-2.8,2.2c-1,0.7-2.1,1.3-3.2,2c-1.1,0.6-2.2,1.1-3.4,1.3c-0.8,0.2-1.5,0.2-2.4-0.1c-0.8-0.2-1.4-0.8-1.7-1.6
		c-0.4-0.8-0.5-1.6-0.4-2.4s0.3-1.6,0.7-2.4c0.4-0.8,0.8-1.5,1.4-2.1s1.1-1.3,1.7-1.8c0.4-0.4,0.9-0.8,1.5-1.3s1.3-0.9,2-1.3
		c0.7-0.4,1.4-0.6,2.1-0.7c0.7-0.1,1.3,0.2,1.8,0.7c0.5,0.6,0.7,1.2,0.6,1.9s-0.4,1.4-0.9,2.1c-0.5,0.7-1,1.3-1.6,1.9
		s-1.1,1-1.5,1.3c-0.6,0.5-1.3,1-2,1.4C285.5-130,284.7-129.6,283.9-129.4z M284.6-134.4c-0.4,0.4-0.9,1-1.4,1.7
		c-0.5,0.7-0.8,1.4-1,2.1c0.2-0.1,0.4-0.2,0.7-0.2c0.2-0.1,0.5-0.2,0.7-0.3c0.5-0.2,1-0.5,1.5-0.8s1-0.6,1.5-1
		c1-0.8,1.9-1.6,2.6-2.5c0.1-0.1,0.3-0.3,0.4-0.5c0.2-0.2,0.3-0.5,0.4-0.7c0.1-0.2,0.2-0.5,0.3-0.7s0-0.4-0.1-0.5
		c-0.5,0-1,0.1-1.6,0.3c-0.5,0.2-1,0.5-1.5,0.8c-0.5,0.3-0.9,0.7-1.4,1.1C285.3-135.2,284.9-134.8,284.6-134.4z M295.7-132.6
		c0.4-0.7,0.8-1.3,1.3-2l1.4-1.9c0.2-0.3,0.4-0.6,0.6-0.8s0.4-0.6,0.6-0.8c-0.1-0.1-0.2-0.2-0.2-0.4c-0.3-0.6-0.4-1.3-0.2-1.9
		c0.1-0.6,0.4-1.2,0.9-1.6s1.1-0.5,1.8-0.3c0.4,0.2,0.7,0.4,0.9,0.7c0.2,0.3,0.2,0.6,0.1,1s-0.2,0.7-0.4,1.1
		c-0.2,0.4-0.4,0.8-0.7,1.2c0.5,0,1-0.1,1.7-0.4c0.7-0.2,1.1-0.4,1.4-0.5c0.3-0.1,0.6-0.1,1,0c0.3,0.1,0.6,0.3,0.8,0.5
		s0.3,0.5,0.3,0.8s-0.1,0.6-0.4,0.9c-0.8,0.9-1.5,1.8-2.3,2.6c-0.8,0.8-1.5,1.8-2.1,2.8c-0.3,0.4-0.6,0.9-0.9,1.5
		c-0.3,0.6-0.4,1.1-0.4,1.6c0,0.2,0.1,0.2,0.4,0.1c0.2-0.1,0.5-0.2,0.8-0.3c0.3-0.1,0.6-0.3,0.8-0.5c0.3-0.2,0.4-0.3,0.5-0.3
		c1-0.8,2-1.6,3-2.4c0.9-0.9,1.9-1.7,2.8-2.6c0.2-0.2,0.5-0.4,0.9-0.9c0.4-0.4,0.8-0.6,1-0.5c0.2,0.1,0.2,0.2,0.1,0.4
		s-0.1,0.4-0.3,0.6c-0.1,0.2-0.3,0.4-0.4,0.6s-0.3,0.3-0.3,0.4c-0.7,1-1.5,1.9-2.5,2.8s-1.9,1.7-2.8,2.5c-0.3,0.3-0.7,0.6-1.1,0.9
		c-0.4,0.3-0.9,0.6-1.4,0.9c-0.5,0.2-1,0.4-1.5,0.4c-0.5,0-0.9-0.1-1.3-0.5c-0.5-0.4-0.8-0.9-0.9-1.4c-0.1-0.5-0.1-1.1,0.1-1.7
		c0.2-0.6,0.4-1.2,0.7-1.7c0.3-0.6,0.5-1.1,0.8-1.5c0.3-0.6,0.7-1.1,1-1.6s0.8-1,1.2-1.6c-0.9,0.1-1.5-0.1-1.9-0.4l-0.3,0.3
		c-0.4,0.6-0.9,1.1-1.3,1.6c-0.4,0.5-0.9,1-1.4,1.5l-1.2,1.1c-0.2,0.1-0.3,0.1-0.5,0.1C295.5-132.2,295.5-132.3,295.7-132.6z"/>
</g>
</svg>
